<svg width="1290.3" height="147.601" viewBox="0 0 1290.3 147.601" xmlns="http://www.w3.org/2000/svg">
	<g id="svgGroup" stroke-linecap="round" fill-rule="evenodd" font-size="9pt" stroke="#000" stroke-width="0.25mm" fill="none" style="stroke:#000;stroke-width:0.25mm;fill:none">
		<path d="M 0 20.4 L 0 7.8 L 78.75 7.8 L 78.75 20.4 L 46.5 20.4 L 46.5 112.8 L 32.25 112.8 L 32.25 20.4 L 0 20.4 Z" id="0" vector-effect="non-scaling-stroke"/>
		<path d="M 105.75 1.8 L 105.75 47.25 Q 109.95 41.1 116.325 37.05 Q 122.7 33 131.55 33 Q 144.75 33 151.275 40.95 Q 157.462 48.489 157.783 60.613 A 50.646 50.646 0 0 1 157.8 61.95 L 157.8 112.8 L 144.3 112.8 L 144.3 63.45 A 31 31 0 0 0 143.848 57.989 Q 142.985 53.173 140.475 49.875 A 12.426 12.426 0 0 0 131.825 44.999 A 18.358 18.358 0 0 0 129.45 44.85 Q 126 44.85 122.625 46.125 Q 119.25 47.4 116.25 49.65 A 39.228 39.228 0 0 0 111.315 54.071 A 44.134 44.134 0 0 0 110.55 54.9 Q 107.85 57.9 105.75 61.2 L 105.75 112.8 L 92.25 112.8 L 92.25 1.8 L 105.75 1.8 Z" id="1" vector-effect="non-scaling-stroke"/>
		<path d="M 234.45 41.1 L 234.45 34.8 L 246.75 34.8 L 246.75 93.9 A 18.225 18.225 0 0 0 246.902 96.354 Q 247.287 99.176 248.644 100.606 A 4.448 4.448 0 0 0 249.525 101.325 Q 252.3 103.05 255.6 103.05 L 252.75 113.55 Q 238.705 113.55 235.505 102.42 A 20.385 20.385 0 0 1 235.35 101.85 A 42.752 42.752 0 0 1 232.355 105.408 A 49.159 49.159 0 0 1 231.225 106.575 A 27.306 27.306 0 0 1 226.284 110.466 A 30.437 30.437 0 0 1 225.9 110.7 Q 222.9 112.5 219.15 113.55 A 28.147 28.147 0 0 1 214.17 114.453 A 35.186 35.186 0 0 1 210.9 114.6 Q 203.55 114.6 197.175 111.75 Q 190.8 108.9 186.075 103.65 Q 181.35 98.4 178.575 90.975 A 43.334 43.334 0 0 1 176.207 81.096 A 55.721 55.721 0 0 1 175.8 74.25 A 49.583 49.583 0 0 1 177.311 61.864 A 44.762 44.762 0 0 1 178.5 57.975 A 41.676 41.676 0 0 1 183.241 48.517 A 37.195 37.195 0 0 1 186.075 44.85 Q 190.95 39.3 197.775 36.15 A 34.686 34.686 0 0 1 210.943 33.038 A 40.623 40.623 0 0 1 212.7 33 A 33.876 33.876 0 0 1 219.89 33.736 A 28.055 28.055 0 0 1 224.925 35.325 A 39.003 39.003 0 0 1 231.355 38.766 A 33.154 33.154 0 0 1 234.45 41.1 Z M 233.25 92.85 L 233.25 51 Q 229.2 48.15 224.325 46.425 Q 219.45 44.7 214.05 44.7 A 24.213 24.213 0 0 0 207.35 45.605 A 21.671 21.671 0 0 0 204.15 46.8 Q 199.65 48.9 196.425 52.725 A 26.09 26.09 0 0 0 192.664 58.729 A 32.253 32.253 0 0 0 191.4 61.95 A 35.139 35.139 0 0 0 189.776 69.871 A 42.932 42.932 0 0 0 189.6 73.8 Q 189.6 80.1 191.4 85.425 A 28.924 28.924 0 0 0 194.215 91.461 A 24.818 24.818 0 0 0 196.5 94.575 Q 199.8 98.4 204.225 100.5 Q 208.65 102.6 213.9 102.6 Q 219.6 102.6 224.7 99.9 Q 229.8 97.2 233.25 92.85 Z" id="2" vector-effect="non-scaling-stroke"/>
		<path d="M 286.65 34.8 L 286.65 47.85 Q 290.85 41.55 297.375 37.275 Q 303.9 33 312.9 33 Q 326.1 33 332.625 40.95 Q 338.812 48.489 339.133 60.613 A 50.646 50.646 0 0 1 339.15 61.95 L 339.15 112.8 L 325.65 112.8 L 325.65 63.45 A 30.418 30.418 0 0 0 325.189 57.989 Q 324.626 54.904 323.373 52.441 A 16.033 16.033 0 0 0 321.75 49.875 A 12.691 12.691 0 0 0 312.832 44.974 A 18.583 18.583 0 0 0 310.65 44.85 Q 307.2 44.85 303.9 46.125 A 27.262 27.262 0 0 0 298.346 49.07 A 30.938 30.938 0 0 0 297.525 49.65 Q 294.45 51.9 291.825 54.9 Q 289.2 57.9 287.1 61.2 L 287.1 112.8 L 273.6 112.8 L 273.6 34.8 L 286.65 34.8 Z" id="3" vector-effect="non-scaling-stroke"/>
		<path d="M 362.4 112.8 L 362.4 1.8 L 375.9 1.8 L 375.9 65.25 L 411.15 33.3 L 418.95 41.85 L 388.8 68.55 L 425.55 105.3 L 416.25 114.3 L 375.9 72.75 L 375.9 112.8 L 362.4 112.8 Z" id="4" vector-effect="non-scaling-stroke"/>
		<path d="M 432.3 106.5 L 438 95.25 A 26.104 26.104 0 0 0 443.028 98.704 A 34.983 34.983 0 0 0 447.825 100.8 A 37.186 37.186 0 0 0 459.033 102.875 A 42.55 42.55 0 0 0 460.5 102.9 A 40.669 40.669 0 0 0 465.124 102.656 Q 469.903 102.107 472.852 100.327 A 11.608 11.608 0 0 0 473.175 100.125 A 11.174 11.174 0 0 0 475.475 98.186 A 7.578 7.578 0 0 0 477.45 93 A 10.817 10.817 0 0 0 476.873 89.448 A 10.194 10.194 0 0 0 476.625 88.8 A 8.065 8.065 0 0 0 475.555 87.005 Q 474.78 86.006 473.625 85.05 Q 472.002 83.707 469.503 82.406 A 41.133 41.133 0 0 0 467.7 81.525 A 73.865 73.865 0 0 0 464.856 80.295 Q 461.888 79.078 457.95 77.7 A 70.659 70.659 0 0 1 451.569 75.217 Q 445.163 72.333 441.45 68.775 A 17.021 17.021 0 0 1 436.604 59.904 A 25.412 25.412 0 0 1 436.05 54.45 Q 436.05 49.95 438.075 46.05 A 19.863 19.863 0 0 1 442.554 40.356 A 23.686 23.686 0 0 1 443.925 39.225 A 25.995 25.995 0 0 1 449.049 36.201 A 33.997 33.997 0 0 1 453.225 34.65 A 37.444 37.444 0 0 1 459.437 33.369 A 51.474 51.474 0 0 1 465.75 33 A 63.198 63.198 0 0 1 472.085 33.302 Q 475.927 33.689 479.175 34.575 A 57.812 57.812 0 0 1 485.636 36.736 A 47.269 47.269 0 0 1 489.6 38.55 L 485.85 49.65 A 36.792 36.792 0 0 0 480.348 47.002 A 45.287 45.287 0 0 0 476.625 45.75 A 37.536 37.536 0 0 0 469.9 44.479 A 47.756 47.756 0 0 0 465.15 44.25 Q 460.146 44.25 456.686 45.546 A 12.764 12.764 0 0 0 453.3 47.4 Q 450.611 49.492 449.707 51.848 A 6.794 6.794 0 0 0 449.25 54.3 A 8.352 8.352 0 0 0 449.54 56.532 A 7.395 7.395 0 0 0 449.925 57.6 Q 450.486 58.848 451.825 59.991 A 11.629 11.629 0 0 0 452.4 60.45 A 17.782 17.782 0 0 0 453.919 61.463 Q 454.754 61.964 455.754 62.465 A 38.627 38.627 0 0 0 457.2 63.15 A 57.166 57.166 0 0 0 459.661 64.184 Q 460.774 64.623 462.034 65.077 A 116.723 116.723 0 0 0 464.7 66 A 128.14 128.14 0 0 1 469.896 67.923 Q 473.963 69.535 477.15 71.175 A 40.818 40.818 0 0 1 481.223 73.561 Q 483.172 74.87 484.711 76.289 A 23.52 23.52 0 0 1 485.4 76.95 Q 488.55 80.1 489.9 83.775 A 21.919 21.919 0 0 1 491.09 88.954 A 27.383 27.383 0 0 1 491.25 91.95 A 21.046 21.046 0 0 1 490.457 97.814 A 18.353 18.353 0 0 1 489 101.4 Q 486.75 105.6 482.7 108.525 A 26.93 26.93 0 0 1 477.441 111.456 A 35.66 35.66 0 0 1 472.875 113.025 A 44.079 44.079 0 0 1 465.568 114.34 A 56.615 56.615 0 0 1 460.05 114.6 A 61.655 61.655 0 0 1 451.789 114.072 A 45.771 45.771 0 0 1 444 112.35 Q 437.446 110.258 432.966 107 A 27.804 27.804 0 0 1 432.3 106.5 Z" id="5" vector-effect="non-scaling-stroke"/>
		<path d="M 601.95 4.95 L 597.9 16.35 A 58.438 58.438 0 0 0 592.484 13.867 A 65.828 65.828 0 0 0 591.15 13.35 A 21.259 21.259 0 0 0 585.717 12.119 A 26.034 26.034 0 0 0 583.2 12 A 16.203 16.203 0 0 0 578.656 12.607 A 12.437 12.437 0 0 0 573.075 15.975 Q 569.831 19.346 569.338 25.36 A 27.436 27.436 0 0 0 569.25 27.6 L 569.25 37.65 L 592.35 37.65 L 592.35 49.35 L 569.25 49.35 L 569.25 112.8 L 555.75 112.8 L 555.75 49.35 L 543.75 49.35 L 543.75 37.65 L 555.75 37.65 L 555.75 28.5 Q 555.75 21.9 557.7 16.65 A 28.423 28.423 0 0 1 560.905 10.406 A 24.94 24.94 0 0 1 563.1 7.65 Q 566.55 3.9 571.5 1.95 Q 576.45 0 582.3 0 A 47.078 47.078 0 0 1 587.134 0.235 Q 589.627 0.493 591.779 1.034 A 25.965 25.965 0 0 1 593.175 1.425 Q 597.75 2.85 601.95 4.95 Z" id="7" vector-effect="non-scaling-stroke"/>
		<path d="M 599.047 64.289 A 51.295 51.295 0 0 0 598.2 73.8 A 52.053 52.053 0 0 0 598.394 78.341 A 43.083 43.083 0 0 0 601.125 90.3 Q 604.05 97.8 609.225 103.2 Q 614.4 108.6 621.525 111.6 A 36.972 36.972 0 0 0 626.103 113.182 A 41.238 41.238 0 0 0 637.05 114.6 Q 645.3 114.6 652.425 111.675 Q 659.55 108.75 664.8 103.35 A 35.737 35.737 0 0 0 667.569 100.141 A 39.242 39.242 0 0 0 672.975 90.375 A 41.721 41.721 0 0 0 674.975 83.417 A 51.112 51.112 0 0 0 675.9 73.5 Q 675.9 64.2 672.9 56.7 A 43.077 43.077 0 0 0 671.908 54.411 A 36.631 36.631 0 0 0 664.65 43.95 Q 659.4 38.7 652.275 35.85 A 39.088 39.088 0 0 0 651.381 35.505 A 40.785 40.785 0 0 0 637.05 33 A 46.732 46.732 0 0 0 635.259 33.034 A 40.472 40.472 0 0 0 621.675 35.85 Q 614.55 38.7 609.375 43.95 A 34.895 34.895 0 0 0 605.8 48.215 A 40.206 40.206 0 0 0 601.2 56.775 A 40.967 40.967 0 0 0 599.047 64.289 Z M 662.1 73.8 Q 662.1 67.95 660.225 62.7 A 29.345 29.345 0 0 0 656.662 55.717 A 26.572 26.572 0 0 0 654.975 53.55 Q 651.6 49.65 647.025 47.325 Q 642.45 45 637.05 45 Q 625.2 45 618.6 52.8 A 26.817 26.817 0 0 0 613.089 63.861 Q 612.102 67.847 612.01 72.525 A 49.304 49.304 0 0 0 612 73.5 Q 612 79.35 613.875 84.675 A 30.197 30.197 0 0 0 617.345 91.632 A 27.226 27.226 0 0 0 619.125 93.975 Q 622.5 97.95 627.075 100.275 Q 631.65 102.6 637.05 102.6 Q 642.9 102.6 647.55 100.5 Q 652.2 98.4 655.425 94.575 A 26.049 26.049 0 0 0 659.549 87.729 A 31.051 31.051 0 0 0 660.375 85.5 A 34.198 34.198 0 0 0 661.852 78.516 A 43.511 43.511 0 0 0 662.1 73.8 Z" id="8" vector-effect="non-scaling-stroke"/>
		<path d="M 740.25 33.9 L 736.2 47.85 Q 733.479 46.705 729.802 46.653 A 24.891 24.891 0 0 0 729.45 46.65 Q 725.25 46.65 721.275 48.45 A 19.802 19.802 0 0 0 715.108 52.873 A 23.385 23.385 0 0 0 714.225 53.85 A 23.306 23.306 0 0 0 711.335 58.174 Q 710.169 60.395 709.275 63.075 Q 707.4 68.7 707.4 76.35 L 707.4 112.8 L 693.9 112.8 L 693.9 34.8 L 706.95 34.8 L 706.95 51.75 A 35.641 35.641 0 0 1 710.002 45.565 A 39.935 39.935 0 0 1 710.55 44.7 Q 712.8 41.25 715.875 38.7 A 25.014 25.014 0 0 1 721.637 35.145 A 28.98 28.98 0 0 1 723 34.575 A 23.164 23.164 0 0 1 728.994 33.154 A 28.664 28.664 0 0 1 732 33 Q 734.25 33 736.425 33.225 A 29.542 29.542 0 0 1 738.228 33.465 Q 739.117 33.613 739.896 33.808 A 17.163 17.163 0 0 1 740.25 33.9 Z" id="9" vector-effect="non-scaling-stroke"/>
		<path d="M 826.8 112.8 L 788.25 11.55 L 802.2 6.15 L 835.2 97.2 L 868.35 6.6 L 881.25 11.55 L 842.85 112.8 L 826.8 112.8 Z" id="11" vector-effect="non-scaling-stroke"/>
		<path d="M 908.25 34.8 L 908.25 112.8 L 894.75 112.8 L 894.75 34.8 L 908.25 34.8 Z M 901.5 21.45 Q 897.6 21.45 894.825 18.675 A 9.091 9.091 0 0 1 892.051 12.122 A 10.887 10.887 0 0 1 892.05 12 Q 892.05 7.65 894.6 5.1 A 8.492 8.492 0 0 1 899.016 2.787 A 12.396 12.396 0 0 1 901.5 2.55 Q 905.4 2.55 908.175 5.325 A 9.091 9.091 0 0 1 910.949 11.879 A 10.887 10.887 0 0 1 910.95 12 Q 910.95 16.35 908.4 18.9 A 8.492 8.492 0 0 1 903.984 21.213 A 12.396 12.396 0 0 1 901.5 21.45 Z" id="12" vector-effect="non-scaling-stroke"/>
		<path d="M 925.5 106.5 L 931.2 95.25 A 26.104 26.104 0 0 0 936.228 98.704 A 34.983 34.983 0 0 0 941.025 100.8 A 37.186 37.186 0 0 0 952.233 102.875 A 42.55 42.55 0 0 0 953.7 102.9 A 40.669 40.669 0 0 0 958.324 102.656 Q 963.103 102.107 966.052 100.327 A 11.608 11.608 0 0 0 966.375 100.125 A 11.174 11.174 0 0 0 968.675 98.186 A 7.578 7.578 0 0 0 970.65 93 A 10.817 10.817 0 0 0 970.073 89.448 A 10.194 10.194 0 0 0 969.825 88.8 A 8.065 8.065 0 0 0 968.755 87.005 Q 967.98 86.006 966.825 85.05 Q 965.202 83.707 962.703 82.406 A 41.133 41.133 0 0 0 960.9 81.525 A 73.865 73.865 0 0 0 958.056 80.295 Q 955.088 79.078 951.15 77.7 A 70.659 70.659 0 0 1 944.769 75.217 Q 938.363 72.333 934.65 68.775 A 17.021 17.021 0 0 1 929.804 59.904 A 25.412 25.412 0 0 1 929.25 54.45 Q 929.25 49.95 931.275 46.05 A 19.863 19.863 0 0 1 935.754 40.356 A 23.686 23.686 0 0 1 937.125 39.225 A 25.995 25.995 0 0 1 942.249 36.201 A 33.997 33.997 0 0 1 946.425 34.65 A 37.444 37.444 0 0 1 952.637 33.369 A 51.474 51.474 0 0 1 958.95 33 A 63.198 63.198 0 0 1 965.285 33.302 Q 969.127 33.689 972.375 34.575 A 57.812 57.812 0 0 1 978.836 36.736 A 47.269 47.269 0 0 1 982.8 38.55 L 979.05 49.65 A 36.792 36.792 0 0 0 973.548 47.002 A 45.287 45.287 0 0 0 969.825 45.75 A 37.536 37.536 0 0 0 963.1 44.479 A 47.756 47.756 0 0 0 958.35 44.25 Q 953.346 44.25 949.886 45.546 A 12.764 12.764 0 0 0 946.5 47.4 Q 943.811 49.492 942.907 51.848 A 6.794 6.794 0 0 0 942.45 54.3 A 8.352 8.352 0 0 0 942.74 56.532 A 7.395 7.395 0 0 0 943.125 57.6 Q 943.686 58.848 945.025 59.991 A 11.629 11.629 0 0 0 945.6 60.45 A 17.782 17.782 0 0 0 947.119 61.463 Q 947.954 61.964 948.954 62.465 A 38.627 38.627 0 0 0 950.4 63.15 A 57.166 57.166 0 0 0 952.861 64.184 Q 953.974 64.623 955.234 65.077 A 116.723 116.723 0 0 0 957.9 66 A 128.14 128.14 0 0 1 963.096 67.923 Q 967.163 69.535 970.35 71.175 A 40.818 40.818 0 0 1 974.423 73.561 Q 976.372 74.87 977.911 76.289 A 23.52 23.52 0 0 1 978.6 76.95 Q 981.75 80.1 983.1 83.775 A 21.919 21.919 0 0 1 984.29 88.954 A 27.383 27.383 0 0 1 984.45 91.95 A 21.046 21.046 0 0 1 983.657 97.814 A 18.353 18.353 0 0 1 982.2 101.4 Q 979.95 105.6 975.9 108.525 A 26.93 26.93 0 0 1 970.641 111.456 A 35.66 35.66 0 0 1 966.075 113.025 A 44.079 44.079 0 0 1 958.768 114.34 A 56.615 56.615 0 0 1 953.25 114.6 A 61.655 61.655 0 0 1 944.989 114.072 A 45.771 45.771 0 0 1 937.2 112.35 Q 930.646 110.258 926.166 107 A 27.804 27.804 0 0 1 925.5 106.5 Z" id="13" vector-effect="non-scaling-stroke"/>
		<path d="M 1015.95 34.8 L 1015.95 112.8 L 1002.45 112.8 L 1002.45 34.8 L 1015.95 34.8 Z M 1009.2 21.45 Q 1005.3 21.45 1002.525 18.675 A 9.091 9.091 0 0 1 999.751 12.122 A 10.887 10.887 0 0 1 999.75 12 Q 999.75 7.65 1002.3 5.1 A 8.492 8.492 0 0 1 1006.716 2.787 A 12.396 12.396 0 0 1 1009.2 2.55 Q 1013.1 2.55 1015.875 5.325 A 9.091 9.091 0 0 1 1018.649 11.879 A 10.887 10.887 0 0 1 1018.65 12 Q 1018.65 16.35 1016.1 18.9 A 8.492 8.492 0 0 1 1011.684 21.213 A 12.396 12.396 0 0 1 1009.2 21.45 Z" id="14" vector-effect="non-scaling-stroke"/>
		<path d="M 1043.25 37.65 L 1046.1 13.05 L 1056.45 13.05 L 1056.45 37.65 L 1078.05 37.65 L 1078.05 49.35 L 1056.45 49.35 L 1056.45 87 A 32.512 32.512 0 0 0 1056.587 90.073 Q 1056.73 91.574 1057.022 92.87 A 16.543 16.543 0 0 0 1057.425 94.35 Q 1058.282 96.988 1059.662 98.699 A 9.423 9.423 0 0 0 1060.05 99.15 Q 1061.7 100.95 1064.025 101.775 Q 1066.35 102.6 1068.9 102.6 A 20.84 20.84 0 0 0 1074.697 101.808 A 19.302 19.302 0 0 0 1075.95 101.4 Q 1079.25 100.2 1082.25 98.55 L 1086 109.35 Q 1083.961 110.574 1080.952 111.762 A 65.048 65.048 0 0 1 1077.9 112.875 Q 1072.8 114.6 1067.25 114.6 A 27.752 27.752 0 0 1 1059.477 113.567 A 20.927 20.927 0 0 1 1049.475 107.25 Q 1044.115 101.213 1043.158 90.722 A 52.557 52.557 0 0 1 1042.95 85.95 L 1042.95 49.35 L 1029.45 49.35 L 1029.45 37.65 L 1043.25 37.65 Z" id="15" vector-effect="non-scaling-stroke"/>
		<path d="M 1113 34.8 L 1113 112.8 L 1099.5 112.8 L 1099.5 34.8 L 1113 34.8 Z M 1106.25 21.45 Q 1102.35 21.45 1099.575 18.675 A 9.091 9.091 0 0 1 1096.801 12.122 A 10.887 10.887 0 0 1 1096.8 12 Q 1096.8 7.65 1099.35 5.1 A 8.492 8.492 0 0 1 1103.766 2.787 A 12.396 12.396 0 0 1 1106.25 2.55 Q 1110.15 2.55 1112.925 5.325 A 9.091 9.091 0 0 1 1115.699 11.879 A 10.887 10.887 0 0 1 1115.7 12 Q 1115.7 16.35 1113.15 18.9 A 8.492 8.492 0 0 1 1108.734 21.213 A 12.396 12.396 0 0 1 1106.25 21.45 Z" id="16" vector-effect="non-scaling-stroke"/>
		<path d="M 1150.05 34.8 L 1150.05 47.85 Q 1154.25 41.55 1160.775 37.275 Q 1167.3 33 1176.3 33 Q 1189.5 33 1196.025 40.95 Q 1202.212 48.489 1202.533 60.613 A 50.646 50.646 0 0 1 1202.55 61.95 L 1202.55 112.8 L 1189.05 112.8 L 1189.05 63.45 A 30.418 30.418 0 0 0 1188.589 57.989 Q 1188.026 54.904 1186.773 52.441 A 16.033 16.033 0 0 0 1185.15 49.875 A 12.691 12.691 0 0 0 1176.232 44.974 A 18.583 18.583 0 0 0 1174.05 44.85 Q 1170.6 44.85 1167.3 46.125 A 27.262 27.262 0 0 0 1161.746 49.07 A 30.938 30.938 0 0 0 1160.925 49.65 Q 1157.85 51.9 1155.225 54.9 Q 1152.6 57.9 1150.5 61.2 L 1150.5 112.8 L 1137 112.8 L 1137 34.8 L 1150.05 34.8 Z" id="17" vector-effect="non-scaling-stroke"/>
		<path d="M 1278 40.8 L 1278 34.8 L 1290.3 34.8 L 1290.3 111 Q 1290.3 120.75 1287.75 127.65 A 32.025 32.025 0 0 1 1284.427 134.283 A 26.373 26.373 0 0 1 1280.475 138.975 A 29.03 29.03 0 0 1 1270.17 145.158 A 33.848 33.848 0 0 1 1269.15 145.5 A 44.093 44.093 0 0 1 1260.549 147.28 A 56.204 56.204 0 0 1 1254.45 147.6 A 54.544 54.544 0 0 1 1241.759 146.15 A 50.868 50.868 0 0 1 1240.95 145.95 A 40.526 40.526 0 0 1 1232.719 142.902 A 35.655 35.655 0 0 1 1229.4 141 L 1234.35 129.3 Q 1237.95 132.15 1242.75 134.025 A 25.357 25.357 0 0 0 1247.531 135.339 Q 1249.884 135.759 1252.588 135.865 A 47.682 47.682 0 0 0 1254.45 135.9 A 32.976 32.976 0 0 0 1261.231 135.244 Q 1267.188 133.992 1271.175 130.35 Q 1277.25 124.8 1277.25 112.35 L 1277.25 102.75 A 23.697 23.697 0 0 1 1274.252 105.721 Q 1272.638 107.073 1270.618 108.368 A 47.11 47.11 0 0 1 1268.625 109.575 A 23.86 23.86 0 0 1 1260.853 112.328 A 32.385 32.385 0 0 1 1255.2 112.8 Q 1248.6 112.8 1242.3 110.175 Q 1236 107.55 1231.2 102.525 A 36.251 36.251 0 0 1 1225.269 94.139 A 44.375 44.375 0 0 1 1223.475 90.225 Q 1220.55 82.95 1220.55 73.5 A 46.615 46.615 0 0 1 1221.893 62.156 A 41.253 41.253 0 0 1 1223.4 57.375 A 42.443 42.443 0 0 1 1228.276 48.123 A 37.604 37.604 0 0 1 1231.125 44.55 Q 1236 39.15 1242.6 36.075 Q 1249.2 33 1256.7 33 A 40.438 40.438 0 0 1 1256.805 33 Q 1260.305 33.009 1263.421 33.625 A 27.344 27.344 0 0 1 1268.775 35.25 A 38.396 38.396 0 0 1 1274.736 38.382 A 31.989 31.989 0 0 1 1278 40.8 Z M 1276.8 91.8 L 1276.8 51 Q 1273.35 48.6 1268.85 46.65 Q 1264.702 44.853 1259.023 44.712 A 39.369 39.369 0 0 0 1258.05 44.7 Q 1253.4 44.7 1249.125 46.575 Q 1244.85 48.45 1241.55 52.05 A 25.325 25.325 0 0 0 1237.577 57.891 A 31.135 31.135 0 0 0 1236.3 60.825 A 29.502 29.502 0 0 0 1234.737 67.051 A 40.12 40.12 0 0 0 1234.35 72.75 Q 1234.35 79.2 1236.3 84.375 A 29.708 29.708 0 0 0 1239.178 90.125 A 25.206 25.206 0 0 0 1241.55 93.225 Q 1244.85 96.9 1249.125 98.85 Q 1253.4 100.8 1258.2 100.8 A 22.914 22.914 0 0 0 1265.067 99.798 A 20.409 20.409 0 0 0 1269 98.1 A 31.282 31.282 0 0 0 1273.471 95.077 A 24.464 24.464 0 0 0 1276.8 91.8 Z" id="18" vector-effect="non-scaling-stroke"/>
	</g>
</svg>